PathFileType	4	(X/Y/Z)	SUBJ32_3_walk_RCNL2025.trc
DataRate	CameraRate	NumFrames	NumMarkers	Units	OrigDataRate	OrigDataStartFrame	OrigNumFrames
100	100	6	25	mm	100	50	393
Frame#	Time	R_Shoulder			L_Shoulder			C7			J_Notch			R_Elbow			L_Elbow			R_Wrist			L_Wrist			R_Asis			L_Asis			Sacral			Thoracic			Sternum			R_Thigh_Lateral			R_Knee_Lateral			R_Shank_Lateral			R_Ankle_Lateral			R_Heel			R_Toe			L_Thigh_Lateral			L_Knee_Lateral			L_Shank_Lateral			L_Ankle_Lateral			L_Heel			L_Toe		
		X1	Y1	Z1	X2	Y2	Z2	X3	Y3	Z3	X4	Y4	Z4	X5	Y5	Z5	X6	Y6	Z6	X7	Y7	Z7	X8	Y8	Z8	X9	Y9	Z9	X10	Y10	Z10	X11	Y11	Z11	X12	Y12	Z12	X13	Y13	Z13	X14	Y14	Z14	X15	Y15	Z15	X16	Y16	Z16	X17	Y17	Z17	X18	Y18	Z18	X19	Y19	Z19	X20	Y20	Z20	X21	Y21	Z21	X22	Y22	Z22	X23	Y23	Z23	X24	Y24	Z24	X25	Y25	Z25
50	0.49000000	-1121.313599	1357.559326	99.195641	-1134.892212	1372.859985	-273.035645	-1163.183350	1436.057617	-69.877411	-1032.135132	1346.653198	-85.764671	-1114.377441	1021.409241	197.780304	-1228.905029	1057.750122	-361.359375	-970.395966	819.633789	193.382973	-1178.849670	802.002502	-373.498611	-1064.429077	907.306946	21.975122	-1047.590332	898.846252	-227.888077	-1254.884033	950.100342	-115.088905	-1254.968018	1207.450317	-92.794617	-961.001343	1118.100830	-91.206070	-1200.479614	548.779236	79.735214	-1206.621704	451.710815	30.669987	-1240.514404	292.898773	94.602676	-1255.058350	67.942909	-27.213501	-1303.320190	60.815357	-83.209656	-1122.860962	50.827148	-49.189796	-1004.934021	579.870605	-342.010223	-978.405212	493.324341	-297.822388	-1017.782288	276.086426	-323.797211	-1062.587280	91.092018	-236.995209	-1109.735718	84.905907	-185.189041	-932.283997	62.886696	-223.373795
51	0.50000000	-1111.520386	1356.699585	98.774422	-1125.226318	1371.074463	-273.412231	-1153.217041	1434.762085	-70.359230	-1022.325439	1345.072021	-86.110107	-1103.629028	1021.021667	198.762177	-1221.013062	1056.042236	-360.284851	-956.277710	821.822418	194.038414	-1173.389771	799.771118	-371.557053	-1055.755615	905.890625	22.400751	-1037.782959	897.168274	-227.455017	-1245.475342	948.799255	-115.508469	-1245.402344	1206.243408	-93.036186	-951.504211	1116.460327	-90.748222	-1194.185425	548.019165	79.728271	-1201.390137	451.090393	30.379137	-1236.419312	292.419556	94.145432	-1254.446167	68.143112	-27.990686	-1302.746216	61.293709	-84.101143	-1122.510132	50.728809	-49.409927	-993.945007	578.488281	-341.009705	-967.885681	491.929840	-296.152557	-997.889343	273.013947	-322.623474	-1029.097778	85.054932	-235.979691	-1075.441040	77.089798	-183.697052	-897.393250	61.582764	-223.129730
52	0.51000000	-1101.654663	1355.717163	98.265633	-1115.488525	1369.189209	-273.862335	-1143.182739	1433.339722	-70.906837	-1012.435974	1343.368408	-86.538910	-1092.937622	1020.533813	199.689896	-1212.970337	1054.254639	-359.365173	-942.327209	823.915558	194.702370	-1167.638977	797.509857	-369.873505	-1047.044800	904.399048	22.783773	-1027.909546	895.355469	-227.126160	-1235.990967	947.372253	-115.973175	-1235.762451	1204.920410	-93.359856	-941.954895	1114.676880	-90.372780	-1187.689819	547.168335	79.714691	-1195.923096	450.407745	30.106388	-1232.145264	291.861115	93.652695	-1253.830688	68.345520	-28.764498	-1302.173096	61.827194	-84.980881	-1122.175659	50.642590	-49.654190	-983.777466	576.666260	-340.026337	-958.107788	490.065369	-294.522614	-978.586243	270.062866	-321.582947	-995.777100	79.857361	-235.238571	-1041.273438	70.401726	-182.472412	-862.863342	60.608307	-222.974792
53	0.52000000	-1091.726440	1354.627930	97.668510	-1105.670044	1367.216919	-274.395691	-1133.084106	1431.811157	-71.535469	-1002.468872	1341.567261	-87.052994	-1082.284912	1019.962341	200.557861	-1204.770020	1052.402832	-358.603943	-928.554993	825.897034	195.370102	-1161.597168	795.226013	-368.440796	-1038.272705	902.865723	23.132500	-1017.939941	893.424805	-226.891342	-1226.406128	945.831116	-116.483513	-1226.043823	1203.494507	-93.774567	-932.338928	1112.780273	-90.081787	-1181.068359	546.282776	79.709724	-1190.307861	449.704773	29.874378	-1227.870117	291.304352	93.168892	-1253.242798	68.569275	-29.487047	-1301.623291	62.430500	-85.801552	-1121.877441	50.576317	-49.890079	-974.524414	574.350403	-339.032623	-949.050171	487.731506	-292.903198	-959.892151	267.265045	-320.676270	-962.881958	75.572235	-234.843460	-1007.523804	64.880417	-181.631378	-828.898438	60.102852	-222.928055
54	0.53000000	-1081.748169	1353.450806	96.982033	-1095.764771	1365.172607	-275.020538	-1122.925903	1430.199951	-72.261223	-992.427185	1339.697754	-87.654442	-1071.657471	1019.325806	201.356033	-1196.401123	1050.502808	-358.005524	-914.969116	827.751068	196.036621	-1155.263794	792.927917	-367.247147	-1029.414795	901.324829	23.453939	-1007.845947	891.391602	-226.738403	-1216.696167	944.194214	-117.041206	-1216.238770	1201.980103	-94.288979	-922.639465	1110.806396	-89.879433	-1174.396240	545.423279	79.730751	-1184.622559	449.021667	29.706450	-1223.746582	290.837341	92.751022	-1252.704712	68.840157	-30.112549	-1301.111938	63.118938	-86.519020	-1121.626831	50.534733	-50.085964	-966.253418	571.493958	-337.993744	-940.664368	484.954224	-291.260406	-941.799988	264.643555	-319.891968	-930.693604	72.243446	-234.827515	-974.495361	60.495872	-181.254044	-795.748779	60.254570	-222.999023
55	0.54000000	-1071.731323	1352.209473	96.203049	-1085.770386	1363.076172	-275.742004	-1112.713135	1428.530640	-73.099236	-982.314514	1337.792114	-88.345840	-1061.048950	1018.641785	202.069504	-1187.848877	1048.570923	-357.574524	-901.576630	829.465332	196.698402	-1148.635315	790.626190	-366.284393	-1020.444580	899.807129	23.753103	-997.604858	889.272339	-226.654373	-1206.840454	942.486389	-117.647736	-1206.336426	1200.391235	-94.910774	-912.840881	1108.794189	-89.768623	-1167.730469	544.641846	79.792984	-1178.921387	448.392090	29.624144	-1219.861572	290.529114	92.450920	-1252.223877	69.183853	-30.606192	-1300.644409	63.910515	-87.098030	-1121.425659	50.518635	-50.218914	-958.978088	568.076538	-336.880188	-932.861633	481.792847	-289.569519	-924.273010	262.222046	-319.208740	-899.509521	69.876228	-235.166763	-942.493652	57.145142	-181.350662	-763.712402	61.275349	-223.189667
